# xmcd CD database file
#
# Track frame offsets:
#	150
#	4692
#	18540
#	41974
#	66076
#
# Disc length: 1272 seconds
#
# Revision: 0
# Processed by: cddbd v1.5.1PL0 Copyright (c) Steve Scherf et al.
# Submitted via: CDex 1.51
#
DISCID=3b04f605
DTITLE=Adam Pacione - Heat
DYEAR=2005
DGENRE=New Age
TTITLE0=Ignite
TTITLE1=Fireflies
TTITLE2=Breeze
TTITLE3=Joelma's Burning
TTITLE4=Heat
EXTD=YEAR: 2005
EXTT0=
EXTT1=
EXTT2=
EXTT3=
EXTT4=
PLAYORDER=
